<svg version="1.2" xmlns="http://www.w3.org/2000/svg" viewBox="0 0 512 512" width="512" height="512">
	<title>IMG_0357</title>
	<style>
		.s0 { fill: #9fa1a2 } 
	</style>
	<g id="Background">
		<path id="Path 1" fill-rule="evenodd" class="s0" d="m51.4 149.8c1.7 1 7.6 4.6 13.1 7.9 5.5 3.3 19.9 12.1 32 19.5 12.1 7.4 28.2 17.3 35.7 21.9 13 8 13.8 8.7 15.8 13.4 1.2 2.7 3 7.1 6 14.5l-14.8-7.7c-8.1-4.2-28.4-15-45.2-24.1-16.8-9-31.3-17.1-32.3-18-1.1-1-3.4-4.4-5.2-7.7-1.9-3.3-4.5-9-5.9-12.8-1.5-3.7-2.5-7.2-2.5-7.8 0.1-0.6 1.5-0.2 3.3 0.9zm412.3-0.9c0.2 0.3-1 4.2-2.8 8.6-1.7 4.4-4.7 10.7-6.6 14-2.8 4.9-4.5 6.6-9.1 9.1-3.1 1.7-17.8 9.6-32.7 17.6-14.9 8-32.7 17.5-39.7 21.1-7.1 3.7-13 6.5-13.3 6.2-0.3-0.3 1.1-4.4 6.7-18l16.1-9.9c8.9-5.5 27.7-16.9 41.7-25.4 14-8.6 28.6-17.4 32.4-19.7 3.8-2.3 7-3.9 7.3-3.6zm-409 32.9c1 0.5 14.6 7.6 30.3 15.7 15.7 8.1 38.3 19.9 72 37.5l2 4.7c1.1 2.7 1.9 4.9 1.8 5-0.2 0.2-7-2.1-15.3-5.1-8.2-3-21.3-7.9-29-10.9-7.7-3-21.4-8.3-30.3-11.8-16.3-6.4-16.4-6.4-20.5-11.9-2.2-3-5.8-8.7-7.8-12.5-2-3.9-4-8.1-4.4-9.3-0.5-2.1-0.4-2.2 1.2-1.4zm404 0.2c0.2 0.6-1.2 4-3.1 7.7-1.9 3.8-5.6 9.9-13.3 20.8l-27.4 10.7c-15.1 5.9-35.6 13.8-45.6 17.5-15.9 5.9-18.1 6.5-17.6 4.8 0.3-1.1 1.2-3.5 2-5.3 1.1-2.7 3.4-4.3 15.6-10.6 7.8-4.1 31.1-16.2 51.7-27 20.6-10.8 37.6-19.1 37.7-18.6zm-303.2 31.2c0.5 0.3 8.2 5 17 10.5 8.8 5.5 18.3 11.4 26 16.2l13 43.2 17.6 9.4 1.9 6.5c1 3.6 3.9 13.7 6.5 22.5 2.5 8.8 4.4 16.1 4.3 16.1-0.2 0.1-5.7-4.8-12.3-10.8-6.6-6-19.2-17.3-28-25-8.8-7.7-16.8-14.9-17.7-16.1-1-1.2-7.3-16.4-14.2-33.7-6.8-17.3-13-33.2-13.8-35.4-0.8-2.3-0.9-3.7-0.3-3.4zm201.6-0.2c0.4 0 0.5 0.6 0.3 1.2-0.2 0.7-6.7 17-28.4 71.3l-17.7 15.6c-9.8 8.6-23.2 20.6-29.8 26.5-6.5 6-11.6 10-11.1 8.9 0.4-1.1 3.3-11.4 12.1-43.6l9.3-5c5.1-2.7 9.4-5.7 9.6-6.7 0.3-0.9 2.1-7.3 4.1-14.2 2-6.9 4.7-15.9 8.6-27.5l21.2-13.2c11.6-7.3 21.5-13.3 21.8-13.3zm-266.1 12.7c15.7 5.8 38.6 14.2 73.5 27.1l1.2 3.9c0.7 2.1 1.2 3.9 1 4.1-0.1 0.2-8.5-1.6-18.7-3.9-10.2-2.3-28.6-6.5-41-9.3-22.3-5.1-22.5-5.2-27.9-9.6-3-2.5-7.1-7-9.1-10-2-3-4.5-7-5.4-8.8-0.9-1.7-1.7-3.4-1.8-3.6-0.1-0.2 12.6 4.4 28.2 10.1zm357.7-10.2c0.2 0.3-0.4 2-1.3 3.7-0.9 1.8-3.1 5.3-4.7 7.8-1.7 2.5-5.4 6.9-8.2 9.8-3.2 3.4-6.2 5.6-8.5 6.2-1.9 0.4-20.8 4.7-42 9.5-21.2 4.7-38.6 8.5-38.7 8.3-0.2-0.2 0.3-2 2.2-8l27-10c14.9-5.5 37.4-13.8 50-18.4 12.7-4.7 23.2-8.7 23.4-9 0.2-0.2 0.6-0.2 0.8 0.1zm-181.8 30.6c0.2 0-0.7 1-2 2.4-1.3 1.4-4.6 3.4-7.4 4.4-2.7 1-8.1 2.6-12 3.6-6.6 1.8-7.2 1.8-9.7 0.2-1.6-0.9-2.6-2.1-2.3-2.7 0.3-0.6 2.6-2 5.3-3.1 3-1.4 8.9-2.6 16.2-3.4 6.3-0.7 11.7-1.3 11.9-1.4zm-187.2 2.2c1 0.3 3.2 0.8 4.8 1.1 1.7 0.3 17 3.5 34 7.2 17.1 3.7 35.5 7.6 41 8.8 9.8 2.1 10 2.2 11.8 5.9 0.9 2 1.6 3.9 1.5 4.2-0.2 0.3-15.1-0.3-66.3-3.1l-6-3.6c-3.3-2-8.4-5.8-11.4-8.4-3-2.7-6.7-6.6-8.3-8.8-2.4-3.1-2.6-3.7-1.1-3.3zm352.8-0.3q1.2 0-0.5 2.7c-1 1.6-4.6 5.4-8.1 8.7-3.5 3.2-9.3 7.5-19.4 13.3l-32.5 1.7c-17.9 0.9-32.6 1.4-32.7 1.1-0.2-0.3 0.5-2.2 3.2-7.9l23.5-5.1c12.9-2.9 32.7-7.1 44-9.5 11.3-2.3 20.7-4.4 20.9-4.6 0.2-0.2 1-0.4 1.6-0.4zm-168.7 7c1.8 0 2.5 1 4.1 6.2 1 3.5 3 11.5 4.5 17.8 1.4 6.3 2.9 13.4 3.3 15.8 0.5 2.7 0.4 4.2-0.2 4.3-0.5 0-4.4-4.2-8.5-9.3-4.1-5.1-9.1-11-11-13.2-1.9-2.1-5.7-5-8.5-6.4-4.2-2-6-2.4-11-2-3.3 0.3-7.6 1.3-13 4.2l0.9-4c0.4-2.1 1.2-4.8 1.7-5.9 0.5-1.1 1.7-2.5 2.7-3.1 1.4-1 2.7-0.6 7.2 2.2 3 1.9 6.2 3.4 7 3.4 0.8 0 3.5-1.4 6-3.1 2.5-1.8 6.3-4.1 8.5-5.1 2.2-0.9 5-1.8 6.3-1.8zm-15.3 24c0.2 0-0.1 1-0.7 2.2-0.6 1.3-3.1 5.6-5.7 9.7-3.2 5.2-4.7 6.8-4.9 5.5-0.2-1.1-0.1-2.9 0.2-4.2 0.3-1.2 2.9-4.7 5.7-7.7 2.8-3 5.2-5.5 5.4-5.5zm-141.8 0.7l20.9 0.7c11.5 0.3 27 0.9 47.9 1.8l1.8 3.6c1 2 1.6 3.8 1.5 3.9-0.2 0.2-6.8 1.4-14.8 2.7-8 1.4-18.1 3-22.5 3.6-7.4 1-8.4 0.9-13-1.1-2.7-1.1-7.9-4-11.5-6.3-3.6-2.4-7.4-5.3-8.4-6.6zm298.8 0.2l-2 2.2c-1.1 1.2-5.1 4.3-9 6.8-3.8 2.5-9 5.5-16 8.5l-22.5-3.7c-12.4-2-22.6-3.8-22.7-3.9-0.1-0.2 0.6-2 1.5-4.1 1.7-3.6 1.9-3.7 7.2-3.9 3 0 12.7-0.4 21.5-0.8 8.8-0.3 21.9-0.7 42-1.1zm-150.8 2.3c0.6 0.7 5.2 6.5 19.1 24.3l-3.5 10.5c-2 5.8-5.8 17.9-8.4 27-2.7 9.1-5.1 16.9-5.2 17.5-0.2 0.5-2.1-4.4-4.1-11-2-6.6-6.1-19.7-14.3-46l2.7-3.5c1.5-1.9 4.9-7.3 7.6-11.8 3.9-6.7 5.1-8.1 6.1-7zm-69.2 12.9c0.6-0.1 2.7 1.6 8.6 7.4l-32.6 14.3-5-1.5c-2.7-0.8-8.7-3.2-13.2-5.4-4.6-2.1-8-4.2-7.7-4.7 0.3-0.4 11.4-2.8 24.7-5.3 13.3-2.6 24.7-4.7 25.2-4.8zm140.3 0.1l10.8 2c6 1 17.7 3.2 25.9 4.9 8.3 1.6 15.1 3.1 15.3 3.2 0.1 0.1-3.3 1.9-7.5 3.9-4.3 2.1-10.4 4.7-19.3 7.8l-15.2-6.5c-8.4-3.6-16-7-16.8-7.5-0.8-0.5-1.3-1-1-1.2 0.3-0.2 2.1-1.8 4.1-3.5zm-126.4 12l4 3.2c2.2 1.7 4.1 3.4 4.3 3.8 0.2 0.5-3.3 3.9-7.9 7.8-6.7 5.6-8.9 6.9-11.7 7-1.9 0-7.1-0.9-11.5-2-4.4-1.2-8.4-2.4-8.8-2.8-0.4-0.4 6.5-4.4 15.4-8.8zm113.2 0.7c0.6 0 8.5 3.5 34 15.7l-5 1.7c-2.7 0.9-8.3 2.2-20 4.4l-18-15 4-3.4c2.2-1.8 4.5-3.3 5-3.4zm-99.3 11l10.7 9.5-4.4 4.3c-4.4 4.2-4.6 4.2-11.2 4.1-3.7 0-7.9-0.4-9.3-0.7-2.4-0.7-2.1-1.1 5.9-9zm86 1.1c0.7 0 4.6 3.4 8.8 7.6 6.7 6.8 7.3 7.7 5.5 8.4-1.1 0.5-5.3 0.9-9.3 0.9-7.1 0.1-7.3 0-15.7-7.9l4.7-4.5c2.5-2.5 5.2-4.5 6-4.5z"/>
	</g>
</svg>